<svg width="24" height="25" viewBox="0 0 24 25" fill="none" xmlns="http://www.w3.org/2000/svg">
<path d="M18 21.4998L16.6 20.0998L18.175 18.4998H14V16.4998H18.175L16.6 14.8998L18 13.4998L22 17.4998L18 21.4998ZM3 21.4998V6.49976C3 5.94976 3.19583 5.47892 3.5875 5.08726C3.97917 4.69559 4.45 4.49976 5 4.49976H17C17.55 4.49976 18.0208 4.69559 18.4125 5.08726C18.8042 5.47892 19 5.94976 19 6.49976V11.5748C18.8333 11.5414 18.6667 11.5206 18.5 11.5123C18.3333 11.5039 18.1667 11.4998 18 11.4998C17.8333 11.4998 17.6667 11.5039 17.5 11.5123C17.3333 11.5206 17.1667 11.5414 17 11.5748V6.49976H5V16.4998H12.075C12.0417 16.6664 12.0208 16.8331 12.0125 16.9998C12.0042 17.1664 12 17.3331 12 17.4998C12 17.6664 12.0042 17.8331 12.0125 17.9998C12.0208 18.1664 12.0417 18.3331 12.075 18.4998H6L3 21.4998ZM7 10.4998H15V8.49976H7V10.4998ZM7 14.4998H12V12.4998H7V14.4998Z" fill="#005EA2"/>
</svg>
