<svg width="24" height="25" viewBox="0 0 24 25" fill="none" xmlns="http://www.w3.org/2000/svg">
<path fill-rule="evenodd" clip-rule="evenodd" d="M13 3.49976C8.03 3.49976 4 7.52976 4 12.4998H1L4.89 16.3898L4.96 16.5298L9 12.4998H6C6 8.62976 9.13 5.49976 13 5.49976C16.87 5.49976 20 8.62976 20 12.4998C20 16.3698 16.87 19.4998 13 19.4998C11.07 19.4998 9.32 18.7098 8.06 17.4398L6.64 18.8598C8.27 20.4898 10.51 21.4998 13 21.4998C17.97 21.4998 22 17.4698 22 12.4998C22 7.52976 17.97 3.49976 13 3.49976ZM12 8.49976V13.4998L16.28 16.0398L17 14.8298L13.5 12.7498V8.49976H12Z" fill="#005EA2"/>
</svg>
